<?xml version="1.0" encoding="UTF-8"?>
<svg version="1.1" viewBox="0 0 2048 793" width="100%" height="100%" xmlns="http://www.w3.org/2000/svg" class="logo">
<style>
    :root {
      --svg-fill-text: #fff;
      --svg-fill-planet: #c083fcff;
    }

    .logo {
      fill: var(--svg-fill-text)
    }

    .logo path:nth-child(1), .logo path:nth-child(2), .logo path:nth-child(3) {
        fill: var(--svg-fill-planet)
    }

</style>
<path transform="translate(334,406)" d="m0 0h34l22 3 21 6 15 6 18 10 16 12 12 10 5 5 11 13 10 14 9 16 9 21 7 26 2 13h-2l-7-19-9-17-11-16-11-13-4-4v-2l-4-2-7-7-18-13-16-9-18-8-24-7-12-2-33-2-2 10-5 22-2 25 2 26 4 19 6 18 10 21 7 11 7 10-3 1-16-9-12-9-13-12-12-15-9-16-7-16-4-14-3-19-1-9v-10l3-22 4-15 5-13 7-14 12-3z"/>
<path transform="translate(419,344)" d="m0 0h28l17 3 16 5 12 5 11 6 13 9 14 12 9 10 10 14 12 25 5 18 3 20v17l-3 21-4 14-5 13-10 19-10 13-4 4h-2l-1-17-5-24-8-24-8-16-10-16-9-12-11-12-11-10-15-11-21-12-25-10-20-5-21-3h-28l-16 2 2-4 8-10 13-13 14-10 16-9 15-6 21-5zm6 13-21 3-16 5-19 9-14 10v1l35 5 17 4 17 6 18 8 14 8 19 14 12 11 8 8 9 11 10 14 10 17 10 25 5 17 2 4 3-3 7-19 4-18 1-18-2-21-5-19-7-16-10-16-12-14-11-10-19-12-15-7-19-5-14-2z"/>
<path transform="translate(852,395)" d="m0 0h24l14 3 12 5 12 7 10 9 7 7 9 14 5 14 2 9 1 10v9l-2 14-4 12-6 11-8 10-12 12-13 8-11 5-13 3-9 1h-12l-14-2-15-5-3-3 2-4 11 3 13 3 18 1 15-2 13-5 13-8 12-11 8-11 5-10 4-15v-25l-4-15-6-12-7-9-4-5-10-8-15-8-14-4-8-1h-18l-14 3-16 7-13 10-8 9-5 7-4-1-1-3 8-11 12-12 13-8 16-6z"/>
<path transform="translate(708,394)" d="m0 0h3l5 24 10 51 6 33 5 21 3-15 6-42 11-66 1-5 6-1 1 2-4 20-13 80-5 28-5 34-2-1-9-47-9-45-8-41v-2h-2l-1 8-8 46-7 35-2 2v-20l8-45 9-52z" />
<path transform="translate(1783,394)" d="m0 0h11l21 2 13 5 9 7 8 9 7 14 2 7 1 8v15l-3 16-4 11-10 13-8 6h-2l8 16 14 25 5 8v2h-7l-6-9-17-32-4-5-17 3h-22v-5l1-1 22-1 16-4 9-6 5-5 6-8 4-10 2-9 1-13-2-15-5-13-6-9-8-7-11-5-9-2-18-1v59h-6l-1-1v-64z" />
<path transform="translate(976,394)" d="m0 0h14l18 2 13 5 9 7 5 5 7 10 5 14 1 5v22l-3 14-5 12-8 10-9 7h-2l10 19 10 18 7 12v2h-6l-4-4-12-23-9-16-1-3-18 3h-22v-6l23-1 12-3 12-6 7-7 6-10 3-9 1-5v-25l-3-12-5-10-9-10-10-6-12-3-9-1h-9l-1 58-6-1z" />
<path transform="translate(1303,395)" d="m0 0h19l12 2 16 7 11 8 5 5 8 9 1 3-5 1-6-5-6-7-14-9-13-5-13-2h-15l-12 2-13 5-11 7-10 9-9 13-6 13-2 6-1 10v13l2 15 5 15 7 12 9 10 9 8 14 7 18 4 1 1v5h-8l-12-3-16-8-9-7-8-8-7-11-6-12-4-13-2-15v-13l3-17 5-12 7-11 9-11 10-8 15-8 14-4z" />
<path transform="translate(1081,394)" d="m0 0 2 1v98l1 4 13-23 14-25 10-17 15-27 6-9 7-2v3l-10 18-12 21-15 26-11 19-16 27-5 4-3-1-1-23v-93z" />
<path transform="translate(1593,394)" d="m0 0h42l18 1v5h-19v158h-6l-1-1v-157h-35v-5z" />
<path transform="translate(1558,398)" d="m0 0h6l1 3v157h-2l-12-23-10-19v-2l5 2 6 7 5 11v2h2l-1-20z" />
<path transform="translate(1485,395)" d="m0 0 3 1 18 35 3 6v2l-6-2-6-9-5-10v136l-5 1-1-1z" />
<path transform="translate(1697,395)" d="m0 0h56v4l-2 1h-48v97l-5 1-1-1z" />
<path transform="translate(655,394)" d="m0 0h5l1 1 9 56 15 91v9l-2 6-2-1-17-103-7-41z" />
<path transform="translate(1401,394)" d="m0 0h54l1 5-2 1h-48v97l-2 1-3-1z" />
<path transform="translate(1698,504)" d="m0 0h12l1 4-7 2-1 43h51v4l-26 1h-30l-1-1v-52z" />
<path transform="translate(1401,504)" d="m0 0h12l1 4-5 2h-3v43h51l1 3-1 2h-55l-1-1z" />
<path transform="translate(1105,484)" d="m0 0 4 1 14 24 16 27 12 20v3l-6-1-4-5-9-15-19-32-9-15z" />
<path transform="translate(1371,523)" d="m0 0 3 1-1 5-10 11-14 9-12 5-12 3h-8l-1-3 3-3 15-3 12-5 13-9 6-5 4-5z" />
<path transform="translate(1658,395)" d="m0 0h11l1 5h-12z" />
</svg>
